<mxfile host="app.diagrams.net" agent="Mozilla/5.0 (Windows NT 10.0; Win64; x64) AppleWebKit/537.36 (KHTML, like Gecko) Chrome/127.0.0.0 Safari/537.36 Edg/127.0.0.0" version="24.7.7">
  <diagram id="R2lEEEUBdFMjLlhIrx00" name="Page-1">
    <mxGraphModel dx="1739" dy="271" grid="1" gridSize="10" guides="1" tooltips="1" connect="1" arrows="1" fold="1" page="1" pageScale="1" pageWidth="1169" pageHeight="827" math="0" shadow="0" extFonts="Permanent Marker^https://fonts.googleapis.com/css?family=Permanent+Marker">
      <root>
        <mxCell id="0" />
        <mxCell id="1" parent="0" />
        <mxCell id="Qhc7Ya4Ps0eeFtfW3-f9-3" value="Hotel" style="rounded=0;whiteSpace=wrap;html=1;fillColor=#dae8fc;strokeColor=#6c8ebf;" parent="1" vertex="1">
          <mxGeometry x="-320" y="610" width="120" height="50" as="geometry" />
        </mxCell>
        <mxCell id="Qhc7Ya4Ps0eeFtfW3-f9-6" value="&lt;u&gt;HotelID&lt;/u&gt;" style="ellipse;whiteSpace=wrap;html=1;fillColor=#fff2cc;strokeColor=#d6b656;" parent="1" vertex="1">
          <mxGeometry x="-490" y="595" width="120" height="80" as="geometry" />
        </mxCell>
        <mxCell id="Qhc7Ya4Ps0eeFtfW3-f9-7" value="" style="endArrow=none;html=1;rounded=0;exitX=0;exitY=0.5;exitDx=0;exitDy=0;entryX=1;entryY=0.5;entryDx=0;entryDy=0;" parent="1" source="Qhc7Ya4Ps0eeFtfW3-f9-3" target="Qhc7Ya4Ps0eeFtfW3-f9-6" edge="1">
          <mxGeometry width="50" height="50" relative="1" as="geometry">
            <mxPoint x="-300" y="630" as="sourcePoint" />
            <mxPoint x="-220" y="550" as="targetPoint" />
          </mxGeometry>
        </mxCell>
        <mxCell id="Qhc7Ya4Ps0eeFtfW3-f9-8" value="name" style="ellipse;whiteSpace=wrap;html=1;fillColor=#fff2cc;strokeColor=#d6b656;" parent="1" vertex="1">
          <mxGeometry x="-427" y="500" width="120" height="80" as="geometry" />
        </mxCell>
        <mxCell id="Qhc7Ya4Ps0eeFtfW3-f9-18" value="" style="endArrow=none;html=1;rounded=0;entryX=1;entryY=1;entryDx=0;entryDy=0;exitX=0.25;exitY=0;exitDx=0;exitDy=0;" parent="1" source="Qhc7Ya4Ps0eeFtfW3-f9-3" target="Qhc7Ya4Ps0eeFtfW3-f9-8" edge="1">
          <mxGeometry width="50" height="50" relative="1" as="geometry">
            <mxPoint x="-280" y="630" as="sourcePoint" />
            <mxPoint x="-230" y="580" as="targetPoint" />
          </mxGeometry>
        </mxCell>
        <mxCell id="Qhc7Ya4Ps0eeFtfW3-f9-19" value="Adress" style="ellipse;whiteSpace=wrap;html=1;fillColor=#fff2cc;strokeColor=#d6b656;" parent="1" vertex="1">
          <mxGeometry x="-320" y="440" width="120" height="80" as="geometry" />
        </mxCell>
        <mxCell id="Qhc7Ya4Ps0eeFtfW3-f9-20" value="" style="endArrow=none;html=1;rounded=0;entryX=0.5;entryY=1;entryDx=0;entryDy=0;exitX=0.5;exitY=0;exitDx=0;exitDy=0;" parent="1" source="Qhc7Ya4Ps0eeFtfW3-f9-3" target="Qhc7Ya4Ps0eeFtfW3-f9-19" edge="1">
          <mxGeometry width="50" height="50" relative="1" as="geometry">
            <mxPoint x="-270" y="600" as="sourcePoint" />
            <mxPoint x="-260" y="520" as="targetPoint" />
          </mxGeometry>
        </mxCell>
        <mxCell id="Qhc7Ya4Ps0eeFtfW3-f9-21" value="Rating" style="ellipse;whiteSpace=wrap;html=1;fillColor=#fff2cc;strokeColor=#d6b656;" parent="1" vertex="1">
          <mxGeometry x="-136" y="595" width="120" height="80" as="geometry" />
        </mxCell>
        <mxCell id="Qhc7Ya4Ps0eeFtfW3-f9-22" value="" style="endArrow=none;html=1;rounded=0;entryX=0;entryY=0.5;entryDx=0;entryDy=0;exitX=1;exitY=0.5;exitDx=0;exitDy=0;" parent="1" source="Qhc7Ya4Ps0eeFtfW3-f9-3" target="Qhc7Ya4Ps0eeFtfW3-f9-21" edge="1">
          <mxGeometry width="50" height="50" relative="1" as="geometry">
            <mxPoint x="-270" y="530" as="sourcePoint" />
            <mxPoint x="-220" y="480" as="targetPoint" />
          </mxGeometry>
        </mxCell>
        <mxCell id="Qhc7Ya4Ps0eeFtfW3-f9-27" value="Description" style="ellipse;whiteSpace=wrap;html=1;fillColor=#fff2cc;strokeColor=#d6b656;" parent="1" vertex="1">
          <mxGeometry x="-208" y="680" width="120" height="80" as="geometry" />
        </mxCell>
        <mxCell id="Qhc7Ya4Ps0eeFtfW3-f9-32" value="Comments" style="ellipse;whiteSpace=wrap;html=1;fillColor=#fff2cc;strokeColor=#d6b656;" parent="1" vertex="1">
          <mxGeometry x="-320" y="740" width="120" height="80" as="geometry" />
        </mxCell>
        <mxCell id="Qhc7Ya4Ps0eeFtfW3-f9-33" value="Img_URL" style="ellipse;whiteSpace=wrap;html=1;fillColor=#fff2cc;strokeColor=#d6b656;" parent="1" vertex="1">
          <mxGeometry x="-427" y="680" width="120" height="80" as="geometry" />
        </mxCell>
        <mxCell id="Qhc7Ya4Ps0eeFtfW3-f9-36" value="" style="endArrow=none;html=1;rounded=0;entryX=0;entryY=0;entryDx=0;entryDy=0;exitX=0.75;exitY=1;exitDx=0;exitDy=0;" parent="1" source="Qhc7Ya4Ps0eeFtfW3-f9-3" target="Qhc7Ya4Ps0eeFtfW3-f9-27" edge="1">
          <mxGeometry width="50" height="50" relative="1" as="geometry">
            <mxPoint x="-330" y="630" as="sourcePoint" />
            <mxPoint x="-280" y="580" as="targetPoint" />
          </mxGeometry>
        </mxCell>
        <mxCell id="Qhc7Ya4Ps0eeFtfW3-f9-38" value="" style="endArrow=none;html=1;rounded=0;entryX=0.25;entryY=1;entryDx=0;entryDy=0;exitX=1;exitY=0;exitDx=0;exitDy=0;" parent="1" source="Qhc7Ya4Ps0eeFtfW3-f9-33" target="Qhc7Ya4Ps0eeFtfW3-f9-3" edge="1">
          <mxGeometry width="50" height="50" relative="1" as="geometry">
            <mxPoint x="-330" y="630" as="sourcePoint" />
            <mxPoint x="-280" y="580" as="targetPoint" />
          </mxGeometry>
        </mxCell>
        <mxCell id="iHN2Ey9QU9K26stUlU5a-1" value="Location" style="ellipse;whiteSpace=wrap;html=1;fillColor=#fff2cc;strokeColor=#d6b656;" parent="1" vertex="1">
          <mxGeometry x="-208" y="500" width="120" height="80" as="geometry" />
        </mxCell>
        <mxCell id="iHN2Ey9QU9K26stUlU5a-2" value="" style="endArrow=none;html=1;rounded=0;entryX=0;entryY=1;entryDx=0;entryDy=0;exitX=0.75;exitY=0;exitDx=0;exitDy=0;" parent="1" source="Qhc7Ya4Ps0eeFtfW3-f9-3" target="iHN2Ey9QU9K26stUlU5a-1" edge="1">
          <mxGeometry width="50" height="50" relative="1" as="geometry">
            <mxPoint x="-278" y="650" as="sourcePoint" />
            <mxPoint x="-228" y="600" as="targetPoint" />
          </mxGeometry>
        </mxCell>
        <mxCell id="iHN2Ey9QU9K26stUlU5a-4" value="Restaurant" style="rounded=0;whiteSpace=wrap;html=1;fillColor=#dae8fc;strokeColor=#6c8ebf;" parent="1" vertex="1">
          <mxGeometry x="-649" y="180" width="120" height="50" as="geometry" />
        </mxCell>
        <mxCell id="iHN2Ey9QU9K26stUlU5a-5" value="&lt;u&gt;ResID&lt;/u&gt;" style="ellipse;whiteSpace=wrap;html=1;fillColor=#fff2cc;strokeColor=#d6b656;" parent="1" vertex="1">
          <mxGeometry x="-819" y="165" width="120" height="80" as="geometry" />
        </mxCell>
        <mxCell id="iHN2Ey9QU9K26stUlU5a-6" value="" style="endArrow=none;html=1;rounded=0;exitX=0;exitY=0.5;exitDx=0;exitDy=0;entryX=1;entryY=0.5;entryDx=0;entryDy=0;" parent="1" source="iHN2Ey9QU9K26stUlU5a-4" target="iHN2Ey9QU9K26stUlU5a-5" edge="1">
          <mxGeometry width="50" height="50" relative="1" as="geometry">
            <mxPoint x="-629" y="200" as="sourcePoint" />
            <mxPoint x="-549" y="120" as="targetPoint" />
          </mxGeometry>
        </mxCell>
        <mxCell id="iHN2Ey9QU9K26stUlU5a-7" value="name" style="ellipse;whiteSpace=wrap;html=1;fillColor=#fff2cc;strokeColor=#d6b656;" parent="1" vertex="1">
          <mxGeometry x="-797" y="60" width="120" height="80" as="geometry" />
        </mxCell>
        <mxCell id="iHN2Ey9QU9K26stUlU5a-8" value="" style="endArrow=none;html=1;rounded=0;entryX=0.5;entryY=1;entryDx=0;entryDy=0;exitX=0;exitY=0;exitDx=0;exitDy=0;" parent="1" source="iHN2Ey9QU9K26stUlU5a-4" target="iHN2Ey9QU9K26stUlU5a-7" edge="1">
          <mxGeometry width="50" height="50" relative="1" as="geometry">
            <mxPoint x="-609" y="200" as="sourcePoint" />
            <mxPoint x="-559" y="150" as="targetPoint" />
          </mxGeometry>
        </mxCell>
        <mxCell id="iHN2Ey9QU9K26stUlU5a-9" value="Adress" style="ellipse;whiteSpace=wrap;html=1;fillColor=#fff2cc;strokeColor=#d6b656;" parent="1" vertex="1">
          <mxGeometry x="-707" width="120" height="80" as="geometry" />
        </mxCell>
        <mxCell id="iHN2Ey9QU9K26stUlU5a-10" value="" style="endArrow=none;html=1;rounded=0;entryX=0.5;entryY=1;entryDx=0;entryDy=0;exitX=0.25;exitY=0;exitDx=0;exitDy=0;" parent="1" source="iHN2Ey9QU9K26stUlU5a-4" target="iHN2Ey9QU9K26stUlU5a-9" edge="1">
          <mxGeometry width="50" height="50" relative="1" as="geometry">
            <mxPoint x="-599" y="170" as="sourcePoint" />
            <mxPoint x="-589" y="90" as="targetPoint" />
          </mxGeometry>
        </mxCell>
        <mxCell id="iHN2Ey9QU9K26stUlU5a-11" value="Rating" style="ellipse;whiteSpace=wrap;html=1;fillColor=#fff2cc;strokeColor=#d6b656;" parent="1" vertex="1">
          <mxGeometry x="-487" y="60" width="120" height="80" as="geometry" />
        </mxCell>
        <mxCell id="iHN2Ey9QU9K26stUlU5a-12" value="" style="endArrow=none;html=1;rounded=0;entryX=0;entryY=1;entryDx=0;entryDy=0;exitX=1;exitY=0;exitDx=0;exitDy=0;" parent="1" source="iHN2Ey9QU9K26stUlU5a-4" target="iHN2Ey9QU9K26stUlU5a-11" edge="1">
          <mxGeometry width="50" height="50" relative="1" as="geometry">
            <mxPoint x="-599" y="100" as="sourcePoint" />
            <mxPoint x="-549" y="50" as="targetPoint" />
          </mxGeometry>
        </mxCell>
        <mxCell id="iHN2Ey9QU9K26stUlU5a-13" value="Price_Range" style="ellipse;whiteSpace=wrap;html=1;fillColor=#fff2cc;strokeColor=#d6b656;" parent="1" vertex="1">
          <mxGeometry x="-469" y="165" width="120" height="80" as="geometry" />
        </mxCell>
        <mxCell id="iHN2Ey9QU9K26stUlU5a-14" value="" style="endArrow=none;html=1;rounded=0;entryX=0;entryY=0.5;entryDx=0;entryDy=0;exitX=1;exitY=0.5;exitDx=0;exitDy=0;" parent="1" source="iHN2Ey9QU9K26stUlU5a-4" target="iHN2Ey9QU9K26stUlU5a-13" edge="1">
          <mxGeometry width="50" height="50" relative="1" as="geometry">
            <mxPoint x="-599" y="100" as="sourcePoint" />
            <mxPoint x="-549" y="50" as="targetPoint" />
          </mxGeometry>
        </mxCell>
        <mxCell id="iHN2Ey9QU9K26stUlU5a-15" value="Description" style="ellipse;whiteSpace=wrap;html=1;fillColor=#fff2cc;strokeColor=#d6b656;" parent="1" vertex="1">
          <mxGeometry x="-537" y="250" width="120" height="80" as="geometry" />
        </mxCell>
        <mxCell id="iHN2Ey9QU9K26stUlU5a-16" value="Comments" style="ellipse;whiteSpace=wrap;html=1;fillColor=#fff2cc;strokeColor=#d6b656;" parent="1" vertex="1">
          <mxGeometry x="-649" y="310" width="120" height="80" as="geometry" />
        </mxCell>
        <mxCell id="iHN2Ey9QU9K26stUlU5a-17" value="Img_URL" style="ellipse;whiteSpace=wrap;html=1;fillColor=#fff2cc;strokeColor=#d6b656;" parent="1" vertex="1">
          <mxGeometry x="-756" y="250" width="120" height="80" as="geometry" />
        </mxCell>
        <mxCell id="iHN2Ey9QU9K26stUlU5a-18" value="" style="endArrow=none;html=1;rounded=0;entryX=0;entryY=0;entryDx=0;entryDy=0;exitX=0.75;exitY=1;exitDx=0;exitDy=0;" parent="1" source="iHN2Ey9QU9K26stUlU5a-4" target="iHN2Ey9QU9K26stUlU5a-15" edge="1">
          <mxGeometry width="50" height="50" relative="1" as="geometry">
            <mxPoint x="-659" y="200" as="sourcePoint" />
            <mxPoint x="-609" y="150" as="targetPoint" />
          </mxGeometry>
        </mxCell>
        <mxCell id="iHN2Ey9QU9K26stUlU5a-19" value="" style="endArrow=none;html=1;rounded=0;entryX=0.5;entryY=0;entryDx=0;entryDy=0;exitX=0.5;exitY=1;exitDx=0;exitDy=0;" parent="1" source="iHN2Ey9QU9K26stUlU5a-4" target="iHN2Ey9QU9K26stUlU5a-16" edge="1">
          <mxGeometry width="50" height="50" relative="1" as="geometry">
            <mxPoint x="-659" y="200" as="sourcePoint" />
            <mxPoint x="-609" y="150" as="targetPoint" />
          </mxGeometry>
        </mxCell>
        <mxCell id="iHN2Ey9QU9K26stUlU5a-20" value="" style="endArrow=none;html=1;rounded=0;entryX=0.25;entryY=1;entryDx=0;entryDy=0;exitX=1;exitY=0;exitDx=0;exitDy=0;" parent="1" source="iHN2Ey9QU9K26stUlU5a-17" target="iHN2Ey9QU9K26stUlU5a-4" edge="1">
          <mxGeometry width="50" height="50" relative="1" as="geometry">
            <mxPoint x="-659" y="200" as="sourcePoint" />
            <mxPoint x="-609" y="150" as="targetPoint" />
          </mxGeometry>
        </mxCell>
        <mxCell id="iHN2Ey9QU9K26stUlU5a-21" value="Location" style="ellipse;whiteSpace=wrap;html=1;fillColor=#fff2cc;strokeColor=#d6b656;" parent="1" vertex="1">
          <mxGeometry x="-577" width="120" height="80" as="geometry" />
        </mxCell>
        <mxCell id="iHN2Ey9QU9K26stUlU5a-22" value="" style="endArrow=none;html=1;rounded=0;entryX=0.5;entryY=1;entryDx=0;entryDy=0;exitX=0.75;exitY=0;exitDx=0;exitDy=0;" parent="1" source="iHN2Ey9QU9K26stUlU5a-4" target="iHN2Ey9QU9K26stUlU5a-21" edge="1">
          <mxGeometry width="50" height="50" relative="1" as="geometry">
            <mxPoint x="-607" y="220" as="sourcePoint" />
            <mxPoint x="-557" y="170" as="targetPoint" />
          </mxGeometry>
        </mxCell>
        <mxCell id="iHN2Ey9QU9K26stUlU5a-23" value="TouristAttraction" style="rounded=0;whiteSpace=wrap;html=1;fillColor=#dae8fc;strokeColor=#6c8ebf;" parent="1" vertex="1">
          <mxGeometry x="-970" y="605" width="120" height="50" as="geometry" />
        </mxCell>
        <mxCell id="iHN2Ey9QU9K26stUlU5a-24" value="&lt;u&gt;AttractionID&lt;/u&gt;" style="ellipse;whiteSpace=wrap;html=1;fillColor=#fff2cc;strokeColor=#d6b656;" parent="1" vertex="1">
          <mxGeometry x="-1140" y="590" width="120" height="80" as="geometry" />
        </mxCell>
        <mxCell id="iHN2Ey9QU9K26stUlU5a-25" value="" style="endArrow=none;html=1;rounded=0;exitX=0;exitY=0.5;exitDx=0;exitDy=0;entryX=1;entryY=0.5;entryDx=0;entryDy=0;" parent="1" source="iHN2Ey9QU9K26stUlU5a-23" target="iHN2Ey9QU9K26stUlU5a-24" edge="1">
          <mxGeometry width="50" height="50" relative="1" as="geometry">
            <mxPoint x="-950" y="625" as="sourcePoint" />
            <mxPoint x="-870" y="545" as="targetPoint" />
          </mxGeometry>
        </mxCell>
        <mxCell id="iHN2Ey9QU9K26stUlU5a-26" value="name" style="ellipse;whiteSpace=wrap;html=1;fillColor=#fff2cc;strokeColor=#d6b656;" parent="1" vertex="1">
          <mxGeometry x="-1118" y="485" width="120" height="80" as="geometry" />
        </mxCell>
        <mxCell id="iHN2Ey9QU9K26stUlU5a-27" value="" style="endArrow=none;html=1;rounded=0;entryX=0.5;entryY=1;entryDx=0;entryDy=0;exitX=0;exitY=0;exitDx=0;exitDy=0;" parent="1" source="iHN2Ey9QU9K26stUlU5a-23" target="iHN2Ey9QU9K26stUlU5a-26" edge="1">
          <mxGeometry width="50" height="50" relative="1" as="geometry">
            <mxPoint x="-930" y="625" as="sourcePoint" />
            <mxPoint x="-880" y="575" as="targetPoint" />
          </mxGeometry>
        </mxCell>
        <mxCell id="iHN2Ey9QU9K26stUlU5a-28" value="Adress" style="ellipse;whiteSpace=wrap;html=1;fillColor=#fff2cc;strokeColor=#d6b656;" parent="1" vertex="1">
          <mxGeometry x="-1030" y="425" width="120" height="80" as="geometry" />
        </mxCell>
        <mxCell id="iHN2Ey9QU9K26stUlU5a-29" value="" style="endArrow=none;html=1;rounded=0;entryX=0.5;entryY=1;entryDx=0;entryDy=0;exitX=0.25;exitY=0;exitDx=0;exitDy=0;" parent="1" source="iHN2Ey9QU9K26stUlU5a-23" target="iHN2Ey9QU9K26stUlU5a-28" edge="1">
          <mxGeometry width="50" height="50" relative="1" as="geometry">
            <mxPoint x="-920" y="595" as="sourcePoint" />
            <mxPoint x="-910" y="515" as="targetPoint" />
          </mxGeometry>
        </mxCell>
        <mxCell id="iHN2Ey9QU9K26stUlU5a-30" value="Rating" style="ellipse;whiteSpace=wrap;html=1;fillColor=#fff2cc;strokeColor=#d6b656;" parent="1" vertex="1">
          <mxGeometry x="-808" y="485" width="120" height="80" as="geometry" />
        </mxCell>
        <mxCell id="iHN2Ey9QU9K26stUlU5a-31" value="" style="endArrow=none;html=1;rounded=0;entryX=0;entryY=1;entryDx=0;entryDy=0;exitX=1;exitY=0;exitDx=0;exitDy=0;" parent="1" source="iHN2Ey9QU9K26stUlU5a-23" target="iHN2Ey9QU9K26stUlU5a-30" edge="1">
          <mxGeometry width="50" height="50" relative="1" as="geometry">
            <mxPoint x="-920" y="525" as="sourcePoint" />
            <mxPoint x="-870" y="475" as="targetPoint" />
          </mxGeometry>
        </mxCell>
        <mxCell id="iHN2Ey9QU9K26stUlU5a-32" value="AttractionType" style="ellipse;whiteSpace=wrap;html=1;fillColor=#fff2cc;strokeColor=#d6b656;" parent="1" vertex="1">
          <mxGeometry x="-790" y="590" width="120" height="80" as="geometry" />
        </mxCell>
        <mxCell id="iHN2Ey9QU9K26stUlU5a-33" value="" style="endArrow=none;html=1;rounded=0;entryX=0;entryY=0.5;entryDx=0;entryDy=0;exitX=1;exitY=0.5;exitDx=0;exitDy=0;" parent="1" source="iHN2Ey9QU9K26stUlU5a-23" target="iHN2Ey9QU9K26stUlU5a-32" edge="1">
          <mxGeometry width="50" height="50" relative="1" as="geometry">
            <mxPoint x="-920" y="525" as="sourcePoint" />
            <mxPoint x="-870" y="475" as="targetPoint" />
          </mxGeometry>
        </mxCell>
        <mxCell id="iHN2Ey9QU9K26stUlU5a-34" value="Description" style="ellipse;whiteSpace=wrap;html=1;fillColor=#fff2cc;strokeColor=#d6b656;" parent="1" vertex="1">
          <mxGeometry x="-898" y="747" width="120" height="80" as="geometry" />
        </mxCell>
        <mxCell id="iHN2Ey9QU9K26stUlU5a-35" value="Comments" style="ellipse;whiteSpace=wrap;html=1;fillColor=#fff2cc;strokeColor=#d6b656;" parent="1" vertex="1">
          <mxGeometry x="-1040" y="747" width="120" height="80" as="geometry" />
        </mxCell>
        <mxCell id="iHN2Ey9QU9K26stUlU5a-36" value="Img_URL" style="ellipse;whiteSpace=wrap;html=1;fillColor=#fff2cc;strokeColor=#d6b656;" parent="1" vertex="1">
          <mxGeometry x="-1118" y="680" width="120" height="80" as="geometry" />
        </mxCell>
        <mxCell id="iHN2Ey9QU9K26stUlU5a-37" value="" style="endArrow=none;html=1;rounded=0;entryX=0.5;entryY=0;entryDx=0;entryDy=0;exitX=0.75;exitY=1;exitDx=0;exitDy=0;" parent="1" source="iHN2Ey9QU9K26stUlU5a-23" target="iHN2Ey9QU9K26stUlU5a-34" edge="1">
          <mxGeometry width="50" height="50" relative="1" as="geometry">
            <mxPoint x="-980" y="625" as="sourcePoint" />
            <mxPoint x="-930" y="575" as="targetPoint" />
          </mxGeometry>
        </mxCell>
        <mxCell id="iHN2Ey9QU9K26stUlU5a-38" value="" style="endArrow=none;html=1;rounded=0;entryX=0.5;entryY=0;entryDx=0;entryDy=0;exitX=0.25;exitY=1;exitDx=0;exitDy=0;" parent="1" source="iHN2Ey9QU9K26stUlU5a-23" target="iHN2Ey9QU9K26stUlU5a-35" edge="1">
          <mxGeometry width="50" height="50" relative="1" as="geometry">
            <mxPoint x="-980" y="625" as="sourcePoint" />
            <mxPoint x="-930" y="575" as="targetPoint" />
          </mxGeometry>
        </mxCell>
        <mxCell id="iHN2Ey9QU9K26stUlU5a-39" value="" style="endArrow=none;html=1;rounded=0;entryX=0;entryY=1;entryDx=0;entryDy=0;exitX=1;exitY=0;exitDx=0;exitDy=0;" parent="1" source="iHN2Ey9QU9K26stUlU5a-36" target="iHN2Ey9QU9K26stUlU5a-23" edge="1">
          <mxGeometry width="50" height="50" relative="1" as="geometry">
            <mxPoint x="-980" y="625" as="sourcePoint" />
            <mxPoint x="-930" y="575" as="targetPoint" />
          </mxGeometry>
        </mxCell>
        <mxCell id="iHN2Ey9QU9K26stUlU5a-40" value="Location" style="ellipse;whiteSpace=wrap;html=1;fillColor=#fff2cc;strokeColor=#d6b656;" parent="1" vertex="1">
          <mxGeometry x="-898" y="425" width="120" height="80" as="geometry" />
        </mxCell>
        <mxCell id="iHN2Ey9QU9K26stUlU5a-41" value="" style="endArrow=none;html=1;rounded=0;entryX=0.5;entryY=1;entryDx=0;entryDy=0;exitX=0.75;exitY=0;exitDx=0;exitDy=0;" parent="1" source="iHN2Ey9QU9K26stUlU5a-23" target="iHN2Ey9QU9K26stUlU5a-40" edge="1">
          <mxGeometry width="50" height="50" relative="1" as="geometry">
            <mxPoint x="-928" y="645" as="sourcePoint" />
            <mxPoint x="-878" y="595" as="targetPoint" />
          </mxGeometry>
        </mxCell>
        <mxCell id="iHN2Ey9QU9K26stUlU5a-42" value="Tour_Duration" style="ellipse;whiteSpace=wrap;html=1;fillColor=#fff2cc;strokeColor=#d6b656;" parent="1" vertex="1">
          <mxGeometry x="-808" y="680" width="120" height="80" as="geometry" />
        </mxCell>
        <mxCell id="iHN2Ey9QU9K26stUlU5a-43" value="" style="endArrow=none;html=1;rounded=0;entryX=1;entryY=1;entryDx=0;entryDy=0;" parent="1" source="iHN2Ey9QU9K26stUlU5a-42" target="iHN2Ey9QU9K26stUlU5a-23" edge="1">
          <mxGeometry width="50" height="50" relative="1" as="geometry">
            <mxPoint x="-930" y="710" as="sourcePoint" />
            <mxPoint x="-880" y="660" as="targetPoint" />
          </mxGeometry>
        </mxCell>
        <mxCell id="xHDT2ucF0EVLkUg0kzO9-2" value="Has" style="rhombus;whiteSpace=wrap;html=1;fillColor=#e1d5e7;strokeColor=#9673a6;" vertex="1" parent="1">
          <mxGeometry x="-180" y="850" width="80" height="80" as="geometry" />
        </mxCell>
        <mxCell id="xHDT2ucF0EVLkUg0kzO9-3" value="HotelPrice" style="rounded=0;whiteSpace=wrap;html=1;fillColor=#dae8fc;strokeColor=#6c8ebf;" vertex="1" parent="1">
          <mxGeometry x="-322.5" y="1180" width="120" height="50" as="geometry" />
        </mxCell>
        <mxCell id="xHDT2ucF0EVLkUg0kzO9-6" value="HotelID" style="ellipse;whiteSpace=wrap;html=1;fillColor=#fff2cc;strokeColor=#d6b656;" vertex="1" parent="1">
          <mxGeometry x="-440" y="1080" width="120" height="80" as="geometry" />
        </mxCell>
        <mxCell id="xHDT2ucF0EVLkUg0kzO9-7" value="" style="endArrow=none;html=1;rounded=0;entryX=1;entryY=1;entryDx=0;entryDy=0;exitX=0.25;exitY=0;exitDx=0;exitDy=0;" edge="1" source="xHDT2ucF0EVLkUg0kzO9-3" target="xHDT2ucF0EVLkUg0kzO9-6" parent="1">
          <mxGeometry width="50" height="50" relative="1" as="geometry">
            <mxPoint x="-282.5" y="1200" as="sourcePoint" />
            <mxPoint x="-232.5" y="1150" as="targetPoint" />
          </mxGeometry>
        </mxCell>
        <mxCell id="xHDT2ucF0EVLkUg0kzO9-12" value="Capacity" style="ellipse;whiteSpace=wrap;html=1;fillColor=#fff2cc;strokeColor=#d6b656;" vertex="1" parent="1">
          <mxGeometry x="-322.5" y="1310" width="120" height="80" as="geometry" />
        </mxCell>
        <mxCell id="xHDT2ucF0EVLkUg0kzO9-14" value="Price" style="ellipse;whiteSpace=wrap;html=1;fillColor=#fff2cc;strokeColor=#d6b656;" vertex="1" parent="1">
          <mxGeometry x="-457" y="1250" width="120" height="80" as="geometry" />
        </mxCell>
        <mxCell id="xHDT2ucF0EVLkUg0kzO9-15" value="" style="endArrow=none;html=1;rounded=0;entryX=0.5;entryY=0;entryDx=0;entryDy=0;exitX=0.5;exitY=1;exitDx=0;exitDy=0;" edge="1" source="xHDT2ucF0EVLkUg0kzO9-3" target="xHDT2ucF0EVLkUg0kzO9-12" parent="1">
          <mxGeometry width="50" height="50" relative="1" as="geometry">
            <mxPoint x="-332.5" y="1200" as="sourcePoint" />
            <mxPoint x="-282.5" y="1150" as="targetPoint" />
          </mxGeometry>
        </mxCell>
        <mxCell id="xHDT2ucF0EVLkUg0kzO9-17" value="" style="endArrow=none;html=1;rounded=0;entryX=0;entryY=1;entryDx=0;entryDy=0;exitX=1;exitY=0;exitDx=0;exitDy=0;" edge="1" source="xHDT2ucF0EVLkUg0kzO9-14" target="xHDT2ucF0EVLkUg0kzO9-3" parent="1">
          <mxGeometry width="50" height="50" relative="1" as="geometry">
            <mxPoint x="-332.5" y="1200" as="sourcePoint" />
            <mxPoint x="-282.5" y="1150" as="targetPoint" />
          </mxGeometry>
        </mxCell>
        <mxCell id="xHDT2ucF0EVLkUg0kzO9-18" value="RoomType" style="ellipse;whiteSpace=wrap;html=1;fillColor=#fff2cc;strokeColor=#d6b656;" vertex="1" parent="1">
          <mxGeometry x="-180" y="1250" width="120" height="80" as="geometry" />
        </mxCell>
        <mxCell id="xHDT2ucF0EVLkUg0kzO9-19" value="" style="endArrow=none;html=1;rounded=0;entryX=0;entryY=0;entryDx=0;entryDy=0;exitX=1;exitY=1;exitDx=0;exitDy=0;" edge="1" source="xHDT2ucF0EVLkUg0kzO9-3" target="xHDT2ucF0EVLkUg0kzO9-18" parent="1">
          <mxGeometry width="50" height="50" relative="1" as="geometry">
            <mxPoint x="-280.5" y="1220" as="sourcePoint" />
            <mxPoint x="-230.5" y="1170" as="targetPoint" />
          </mxGeometry>
        </mxCell>
        <mxCell id="xHDT2ucF0EVLkUg0kzO9-20" value="AttractionPrice" style="rounded=0;whiteSpace=wrap;html=1;fillColor=#dae8fc;strokeColor=#6c8ebf;" vertex="1" parent="1">
          <mxGeometry x="-972.5" y="1180" width="120" height="50" as="geometry" />
        </mxCell>
        <mxCell id="xHDT2ucF0EVLkUg0kzO9-21" value="AttractionID" style="ellipse;whiteSpace=wrap;html=1;fillColor=#fff2cc;strokeColor=#d6b656;" vertex="1" parent="1">
          <mxGeometry x="-1079.5" y="1080" width="120" height="80" as="geometry" />
        </mxCell>
        <mxCell id="xHDT2ucF0EVLkUg0kzO9-22" value="" style="endArrow=none;html=1;rounded=0;entryX=1;entryY=1;entryDx=0;entryDy=0;exitX=0.25;exitY=0;exitDx=0;exitDy=0;" edge="1" source="xHDT2ucF0EVLkUg0kzO9-20" target="xHDT2ucF0EVLkUg0kzO9-21" parent="1">
          <mxGeometry width="50" height="50" relative="1" as="geometry">
            <mxPoint x="-932.5" y="1200" as="sourcePoint" />
            <mxPoint x="-882.5" y="1150" as="targetPoint" />
          </mxGeometry>
        </mxCell>
        <mxCell id="xHDT2ucF0EVLkUg0kzO9-23" value="NumberPeople" style="ellipse;whiteSpace=wrap;html=1;fillColor=#fff2cc;strokeColor=#d6b656;" vertex="1" parent="1">
          <mxGeometry x="-972.5" y="1310" width="120" height="80" as="geometry" />
        </mxCell>
        <mxCell id="xHDT2ucF0EVLkUg0kzO9-24" value="Price" style="ellipse;whiteSpace=wrap;html=1;fillColor=#fff2cc;strokeColor=#d6b656;" vertex="1" parent="1">
          <mxGeometry x="-1100" y="1250" width="120" height="80" as="geometry" />
        </mxCell>
        <mxCell id="xHDT2ucF0EVLkUg0kzO9-25" value="" style="endArrow=none;html=1;rounded=0;entryX=0.5;entryY=0;entryDx=0;entryDy=0;exitX=0.5;exitY=1;exitDx=0;exitDy=0;" edge="1" source="xHDT2ucF0EVLkUg0kzO9-20" target="xHDT2ucF0EVLkUg0kzO9-23" parent="1">
          <mxGeometry width="50" height="50" relative="1" as="geometry">
            <mxPoint x="-982.5" y="1200" as="sourcePoint" />
            <mxPoint x="-932.5" y="1150" as="targetPoint" />
          </mxGeometry>
        </mxCell>
        <mxCell id="xHDT2ucF0EVLkUg0kzO9-26" value="" style="endArrow=none;html=1;rounded=0;entryX=0.25;entryY=1;entryDx=0;entryDy=0;exitX=1;exitY=0;exitDx=0;exitDy=0;" edge="1" source="xHDT2ucF0EVLkUg0kzO9-24" target="xHDT2ucF0EVLkUg0kzO9-20" parent="1">
          <mxGeometry width="50" height="50" relative="1" as="geometry">
            <mxPoint x="-982.5" y="1200" as="sourcePoint" />
            <mxPoint x="-932.5" y="1150" as="targetPoint" />
          </mxGeometry>
        </mxCell>
        <mxCell id="xHDT2ucF0EVLkUg0kzO9-27" value="TicketType" style="ellipse;whiteSpace=wrap;html=1;fillColor=#fff2cc;strokeColor=#d6b656;" vertex="1" parent="1">
          <mxGeometry x="-852.5" y="1250" width="120" height="80" as="geometry" />
        </mxCell>
        <mxCell id="xHDT2ucF0EVLkUg0kzO9-28" value="" style="endArrow=none;html=1;rounded=0;entryX=0;entryY=0;entryDx=0;entryDy=0;exitX=0.75;exitY=1;exitDx=0;exitDy=0;" edge="1" source="xHDT2ucF0EVLkUg0kzO9-20" target="xHDT2ucF0EVLkUg0kzO9-27" parent="1">
          <mxGeometry width="50" height="50" relative="1" as="geometry">
            <mxPoint x="-930.5" y="1220" as="sourcePoint" />
            <mxPoint x="-880.5" y="1170" as="targetPoint" />
          </mxGeometry>
        </mxCell>
        <mxCell id="xHDT2ucF0EVLkUg0kzO9-29" value="Has" style="rhombus;whiteSpace=wrap;html=1;fillColor=#e1d5e7;strokeColor=#9673a6;" vertex="1" parent="1">
          <mxGeometry x="-950" y="940" width="80" height="80" as="geometry" />
        </mxCell>
        <mxCell id="xHDT2ucF0EVLkUg0kzO9-30" value="" style="endArrow=none;html=1;rounded=0;entryX=0.5;entryY=0;entryDx=0;entryDy=0;exitX=0.5;exitY=1;exitDx=0;exitDy=0;" edge="1" parent="1" source="iHN2Ey9QU9K26stUlU5a-23" target="xHDT2ucF0EVLkUg0kzO9-29">
          <mxGeometry width="50" height="50" relative="1" as="geometry">
            <mxPoint x="-500" y="1040" as="sourcePoint" />
            <mxPoint x="-450" y="990" as="targetPoint" />
          </mxGeometry>
        </mxCell>
        <mxCell id="xHDT2ucF0EVLkUg0kzO9-31" value="" style="endArrow=none;html=1;rounded=0;entryX=0.5;entryY=1;entryDx=0;entryDy=0;exitX=0.5;exitY=0;exitDx=0;exitDy=0;shape=link;" edge="1" parent="1" source="xHDT2ucF0EVLkUg0kzO9-20" target="xHDT2ucF0EVLkUg0kzO9-29">
          <mxGeometry width="50" height="50" relative="1" as="geometry">
            <mxPoint x="-500" y="1040" as="sourcePoint" />
            <mxPoint x="-450" y="990" as="targetPoint" />
          </mxGeometry>
        </mxCell>
        <mxCell id="xHDT2ucF0EVLkUg0kzO9-32" value="" style="endArrow=none;html=1;rounded=0;entryX=0.5;entryY=0;entryDx=0;entryDy=0;exitX=0.5;exitY=1;exitDx=0;exitDy=0;" edge="1" parent="1" source="Qhc7Ya4Ps0eeFtfW3-f9-3" target="xHDT2ucF0EVLkUg0kzO9-2">
          <mxGeometry width="50" height="50" relative="1" as="geometry">
            <mxPoint x="-500" y="1040" as="sourcePoint" />
            <mxPoint x="-450" y="990" as="targetPoint" />
          </mxGeometry>
        </mxCell>
        <mxCell id="xHDT2ucF0EVLkUg0kzO9-37" value="" style="endArrow=none;html=1;rounded=0;entryX=0.5;entryY=1;entryDx=0;entryDy=0;exitX=0.5;exitY=0;exitDx=0;exitDy=0;shape=link;" edge="1" parent="1" source="xHDT2ucF0EVLkUg0kzO9-3" target="xHDT2ucF0EVLkUg0kzO9-2">
          <mxGeometry width="50" height="50" relative="1" as="geometry">
            <mxPoint x="-500" y="1040" as="sourcePoint" />
            <mxPoint x="-292" y="988" as="targetPoint" />
          </mxGeometry>
        </mxCell>
        <mxCell id="xHDT2ucF0EVLkUg0kzO9-39" value="&lt;u&gt;HPriceID&lt;/u&gt;" style="ellipse;whiteSpace=wrap;html=1;fillColor=#fff2cc;strokeColor=#d6b656;" vertex="1" parent="1">
          <mxGeometry x="-200" y="1080" width="120" height="80" as="geometry" />
        </mxCell>
        <mxCell id="xHDT2ucF0EVLkUg0kzO9-40" value="" style="endArrow=none;html=1;rounded=0;entryX=0;entryY=1;entryDx=0;entryDy=0;exitX=0.75;exitY=0;exitDx=0;exitDy=0;" edge="1" parent="1" source="xHDT2ucF0EVLkUg0kzO9-3" target="xHDT2ucF0EVLkUg0kzO9-39">
          <mxGeometry width="50" height="50" relative="1" as="geometry">
            <mxPoint x="-290" y="1180" as="sourcePoint" />
            <mxPoint x="-240" y="1130" as="targetPoint" />
          </mxGeometry>
        </mxCell>
        <mxCell id="xHDT2ucF0EVLkUg0kzO9-42" value="&lt;u&gt;APriceID&lt;/u&gt;" style="ellipse;whiteSpace=wrap;html=1;fillColor=#fff2cc;strokeColor=#d6b656;" vertex="1" parent="1">
          <mxGeometry x="-852.5" y="1080" width="120" height="80" as="geometry" />
        </mxCell>
        <mxCell id="xHDT2ucF0EVLkUg0kzO9-43" value="" style="endArrow=none;html=1;rounded=0;entryX=0;entryY=1;entryDx=0;entryDy=0;exitX=0.75;exitY=0;exitDx=0;exitDy=0;" edge="1" parent="1" source="xHDT2ucF0EVLkUg0kzO9-20" target="xHDT2ucF0EVLkUg0kzO9-42">
          <mxGeometry width="50" height="50" relative="1" as="geometry">
            <mxPoint x="-470" y="1270" as="sourcePoint" />
            <mxPoint x="-420" y="1220" as="targetPoint" />
          </mxGeometry>
        </mxCell>
        <mxCell id="xHDT2ucF0EVLkUg0kzO9-51" value="" style="endArrow=none;html=1;rounded=0;entryX=0.5;entryY=1;entryDx=0;entryDy=0;exitX=0.5;exitY=0;exitDx=0;exitDy=0;" edge="1" parent="1" source="Qhc7Ya4Ps0eeFtfW3-f9-32" target="Qhc7Ya4Ps0eeFtfW3-f9-3">
          <mxGeometry width="50" height="50" relative="1" as="geometry">
            <mxPoint x="-260" y="741" as="sourcePoint" />
            <mxPoint x="-340" y="700" as="targetPoint" />
          </mxGeometry>
        </mxCell>
      </root>
    </mxGraphModel>
  </diagram>
</mxfile>
